G04 #@! TF.FileFunction,Soldermask,Top*
%FSLAX46Y46*%
G04 Gerber Fmt 4.6, Leading zero omitted, Abs format (unit mm)*
G04 Created by KiCad (PCBNEW 4.0.2-stable) date 2016年05月15日日曜日 13:14:42*
%MOMM*%
G01*
G04 APERTURE LIST*
%ADD10C,0.100000*%
%ADD11C,1.700000*%
%ADD12R,1.700000X1.700000*%
%ADD13R,1.100000X1.700000*%
%ADD14R,1.900000X1.700000*%
%ADD15R,0.700000X1.900000*%
%ADD16R,1.900000X0.700000*%
%ADD17R,1.797000X1.797000*%
%ADD18C,1.797000*%
%ADD19R,1.650000X1.900000*%
%ADD20C,2.899360*%
%ADD21R,1.900000X1.650000*%
G04 APERTURE END LIST*
D10*
D11*
X199390000Y-110450000D03*
D12*
X199390000Y-107950000D03*
D11*
X212090000Y-106990000D03*
D12*
X212090000Y-110490000D03*
D11*
X223480000Y-102870000D03*
D12*
X220980000Y-102870000D03*
D13*
X198440000Y-118110000D03*
X200340000Y-118110000D03*
X190820000Y-116840000D03*
X192720000Y-116840000D03*
D14*
X168990000Y-96520000D03*
X166290000Y-96520000D03*
X175180000Y-96520000D03*
X177880000Y-96520000D03*
X186610000Y-96520000D03*
X189310000Y-96520000D03*
X198040000Y-96520000D03*
X200740000Y-96520000D03*
X209470000Y-96520000D03*
X212170000Y-96520000D03*
X220900000Y-96520000D03*
X223600000Y-96520000D03*
X181690000Y-110490000D03*
X178990000Y-110490000D03*
X196930000Y-104140000D03*
X194230000Y-104140000D03*
X178990000Y-124460000D03*
X181690000Y-124460000D03*
X196930000Y-124460000D03*
X194230000Y-124460000D03*
X182800000Y-116840000D03*
X185500000Y-116840000D03*
X178990000Y-102870000D03*
X181690000Y-102870000D03*
X189310000Y-124460000D03*
X186610000Y-124460000D03*
D15*
X161350000Y-114920000D03*
X161850000Y-114920000D03*
X162350000Y-114920000D03*
X162850000Y-114920000D03*
X163350000Y-114920000D03*
X163850000Y-114920000D03*
X164350000Y-114920000D03*
X164850000Y-114920000D03*
X165350000Y-114920000D03*
X165850000Y-114920000D03*
X166350000Y-114920000D03*
X166850000Y-114920000D03*
X167350000Y-114920000D03*
X167850000Y-114920000D03*
X168350000Y-114920000D03*
X168850000Y-114920000D03*
D16*
X170800000Y-112970000D03*
X170800000Y-112470000D03*
X170800000Y-111970000D03*
X170800000Y-111470000D03*
X170800000Y-110970000D03*
X170800000Y-110470000D03*
X170800000Y-109970000D03*
X170800000Y-109470000D03*
X170800000Y-108970000D03*
X170800000Y-108470000D03*
X170800000Y-107970000D03*
X170800000Y-107470000D03*
X170800000Y-106970000D03*
X170800000Y-106470000D03*
X170800000Y-105970000D03*
X170800000Y-105470000D03*
D15*
X168850000Y-103520000D03*
X168350000Y-103520000D03*
X167850000Y-103520000D03*
X167350000Y-103520000D03*
X166850000Y-103520000D03*
X166350000Y-103520000D03*
X165850000Y-103520000D03*
X165350000Y-103520000D03*
X164850000Y-103520000D03*
X164350000Y-103520000D03*
X163850000Y-103520000D03*
X163350000Y-103520000D03*
X162850000Y-103520000D03*
X162350000Y-103520000D03*
X161850000Y-103520000D03*
X161350000Y-103520000D03*
D16*
X159400000Y-105470000D03*
X159400000Y-105970000D03*
X159400000Y-106470000D03*
X159400000Y-106970000D03*
X159400000Y-107470000D03*
X159400000Y-107970000D03*
X159400000Y-108470000D03*
X159400000Y-108970000D03*
X159400000Y-109470000D03*
X159400000Y-109970000D03*
X159400000Y-110470000D03*
X159400000Y-110970000D03*
X159400000Y-111470000D03*
X159400000Y-111970000D03*
X159400000Y-112470000D03*
X159400000Y-112970000D03*
D17*
X223520000Y-93980000D03*
D18*
X220980000Y-93980000D03*
X218440000Y-93980000D03*
D17*
X212090000Y-93980000D03*
D18*
X209550000Y-93980000D03*
X207010000Y-93980000D03*
D17*
X200660000Y-93980000D03*
D18*
X198120000Y-93980000D03*
X195580000Y-93980000D03*
D17*
X189230000Y-93980000D03*
D18*
X186690000Y-93980000D03*
X184150000Y-93980000D03*
D17*
X177800000Y-93980000D03*
D18*
X175260000Y-93980000D03*
X172720000Y-93980000D03*
D17*
X166370000Y-93980000D03*
D18*
X163830000Y-93980000D03*
X161290000Y-93980000D03*
D19*
X180340000Y-115550000D03*
X180340000Y-113050000D03*
D20*
X215978740Y-125730000D03*
X210977480Y-125730000D03*
X220980000Y-125730000D03*
X167718740Y-125730000D03*
X162717480Y-125730000D03*
X172720000Y-125730000D03*
D21*
X185440000Y-110490000D03*
X187940000Y-110490000D03*
X177780000Y-116840000D03*
X175280000Y-116840000D03*
D19*
X189230000Y-105390000D03*
X189230000Y-102890000D03*
D21*
X221000000Y-109220000D03*
X223500000Y-109220000D03*
D19*
X204470000Y-107970000D03*
X204470000Y-110470000D03*
M02*
