G04 #@! TF.FileFunction,Legend,Top*
%FSLAX46Y46*%
G04 Gerber Fmt 4.6, Leading zero omitted, Abs format (unit mm)*
G04 Created by KiCad (PCBNEW 4.0.2-stable) date 2016年05月15日日曜日 13:14:42*
%MOMM*%
G01*
G04 APERTURE LIST*
%ADD10C,0.100000*%
%ADD11C,0.150000*%
%ADD12C,1.700000*%
%ADD13R,1.700000X1.700000*%
%ADD14R,1.100000X1.700000*%
%ADD15R,1.900000X1.700000*%
%ADD16R,0.700000X1.900000*%
%ADD17R,1.900000X0.700000*%
%ADD18R,1.797000X1.797000*%
%ADD19C,1.797000*%
%ADD20R,1.650000X1.900000*%
%ADD21C,2.899360*%
%ADD22R,1.900000X1.650000*%
G04 APERTURE END LIST*
D10*
D11*
X202539000Y-109275000D02*
X196241000Y-109275000D01*
X202533000Y-109415000D02*
X196247000Y-109415000D01*
X202520000Y-109555000D02*
X199836000Y-109555000D01*
X198944000Y-109555000D02*
X196260000Y-109555000D01*
X202501000Y-109695000D02*
X200046000Y-109695000D01*
X198734000Y-109695000D02*
X196279000Y-109695000D01*
X202475000Y-109835000D02*
X200179000Y-109835000D01*
X198601000Y-109835000D02*
X196305000Y-109835000D01*
X202443000Y-109975000D02*
X200270000Y-109975000D01*
X198510000Y-109975000D02*
X196337000Y-109975000D01*
X202404000Y-110115000D02*
X200332000Y-110115000D01*
X198448000Y-110115000D02*
X196376000Y-110115000D01*
X202358000Y-110255000D02*
X200371000Y-110255000D01*
X198409000Y-110255000D02*
X196422000Y-110255000D01*
X202305000Y-110395000D02*
X200388000Y-110395000D01*
X198392000Y-110395000D02*
X196475000Y-110395000D01*
X202243000Y-110535000D02*
X200386000Y-110535000D01*
X198394000Y-110535000D02*
X196537000Y-110535000D01*
X202173000Y-110675000D02*
X200364000Y-110675000D01*
X198416000Y-110675000D02*
X196607000Y-110675000D01*
X202094000Y-110815000D02*
X200321000Y-110815000D01*
X198459000Y-110815000D02*
X196686000Y-110815000D01*
X202006000Y-110955000D02*
X200253000Y-110955000D01*
X198527000Y-110955000D02*
X196774000Y-110955000D01*
X201906000Y-111095000D02*
X200154000Y-111095000D01*
X198626000Y-111095000D02*
X196874000Y-111095000D01*
X201794000Y-111235000D02*
X200009000Y-111235000D01*
X198771000Y-111235000D02*
X196986000Y-111235000D01*
X201669000Y-111375000D02*
X199770000Y-111375000D01*
X199010000Y-111375000D02*
X197111000Y-111375000D01*
X201526000Y-111515000D02*
X197254000Y-111515000D01*
X201364000Y-111655000D02*
X197416000Y-111655000D01*
X201176000Y-111795000D02*
X197604000Y-111795000D01*
X200953000Y-111935000D02*
X197827000Y-111935000D01*
X200677000Y-112075000D02*
X198103000Y-112075000D01*
X200302000Y-112215000D02*
X198478000Y-112215000D01*
X200390000Y-110450000D02*
G75*
G03X200390000Y-110450000I-1000000J0D01*
G01*
X202577500Y-109200000D02*
G75*
G03X202577500Y-109200000I-3187500J0D01*
G01*
X208091000Y-108665000D02*
X216089000Y-108665000D01*
X208096000Y-108525000D02*
X216084000Y-108525000D01*
X208106000Y-108385000D02*
X216074000Y-108385000D01*
X208121000Y-108245000D02*
X216059000Y-108245000D01*
X208141000Y-108105000D02*
X216039000Y-108105000D01*
X208166000Y-107965000D02*
X211868000Y-107965000D01*
X212312000Y-107965000D02*
X216014000Y-107965000D01*
X208196000Y-107825000D02*
X211540000Y-107825000D01*
X212640000Y-107825000D02*
X215984000Y-107825000D01*
X208232000Y-107685000D02*
X211371000Y-107685000D01*
X212809000Y-107685000D02*
X215948000Y-107685000D01*
X208273000Y-107545000D02*
X211258000Y-107545000D01*
X212922000Y-107545000D02*
X215907000Y-107545000D01*
X208319000Y-107405000D02*
X211180000Y-107405000D01*
X213000000Y-107405000D02*
X215861000Y-107405000D01*
X208372000Y-107265000D02*
X211129000Y-107265000D01*
X213051000Y-107265000D02*
X215808000Y-107265000D01*
X208431000Y-107125000D02*
X211099000Y-107125000D01*
X213081000Y-107125000D02*
X215749000Y-107125000D01*
X208496000Y-106985000D02*
X211090000Y-106985000D01*
X213090000Y-106985000D02*
X215684000Y-106985000D01*
X208567000Y-106845000D02*
X211101000Y-106845000D01*
X213079000Y-106845000D02*
X215613000Y-106845000D01*
X208646000Y-106705000D02*
X211131000Y-106705000D01*
X213049000Y-106705000D02*
X215534000Y-106705000D01*
X208733000Y-106565000D02*
X211185000Y-106565000D01*
X212995000Y-106565000D02*
X215447000Y-106565000D01*
X208828000Y-106425000D02*
X211265000Y-106425000D01*
X212915000Y-106425000D02*
X215352000Y-106425000D01*
X208932000Y-106285000D02*
X211381000Y-106285000D01*
X212799000Y-106285000D02*
X215248000Y-106285000D01*
X209046000Y-106145000D02*
X211555000Y-106145000D01*
X212625000Y-106145000D02*
X215134000Y-106145000D01*
X209171000Y-106005000D02*
X211917000Y-106005000D01*
X212263000Y-106005000D02*
X215009000Y-106005000D01*
X209309000Y-105865000D02*
X214871000Y-105865000D01*
X209461000Y-105725000D02*
X214719000Y-105725000D01*
X209631000Y-105585000D02*
X214549000Y-105585000D01*
X209822000Y-105445000D02*
X214358000Y-105445000D01*
X210040000Y-105305000D02*
X214140000Y-105305000D01*
X210296000Y-105165000D02*
X213884000Y-105165000D01*
X210607000Y-105025000D02*
X213573000Y-105025000D01*
X211023000Y-104885000D02*
X213157000Y-104885000D01*
X211890000Y-104745000D02*
X212290000Y-104745000D01*
X213090000Y-106990000D02*
G75*
G03X213090000Y-106990000I-1000000J0D01*
G01*
X216127500Y-108740000D02*
G75*
G03X216127500Y-108740000I-4037500J0D01*
G01*
X222305000Y-99721000D02*
X222305000Y-106019000D01*
X222445000Y-99727000D02*
X222445000Y-106013000D01*
X222585000Y-99740000D02*
X222585000Y-102424000D01*
X222585000Y-103316000D02*
X222585000Y-106000000D01*
X222725000Y-99759000D02*
X222725000Y-102214000D01*
X222725000Y-103526000D02*
X222725000Y-105981000D01*
X222865000Y-99785000D02*
X222865000Y-102081000D01*
X222865000Y-103659000D02*
X222865000Y-105955000D01*
X223005000Y-99817000D02*
X223005000Y-101990000D01*
X223005000Y-103750000D02*
X223005000Y-105923000D01*
X223145000Y-99856000D02*
X223145000Y-101928000D01*
X223145000Y-103812000D02*
X223145000Y-105884000D01*
X223285000Y-99902000D02*
X223285000Y-101889000D01*
X223285000Y-103851000D02*
X223285000Y-105838000D01*
X223425000Y-99955000D02*
X223425000Y-101872000D01*
X223425000Y-103868000D02*
X223425000Y-105785000D01*
X223565000Y-100017000D02*
X223565000Y-101874000D01*
X223565000Y-103866000D02*
X223565000Y-105723000D01*
X223705000Y-100087000D02*
X223705000Y-101896000D01*
X223705000Y-103844000D02*
X223705000Y-105653000D01*
X223845000Y-100166000D02*
X223845000Y-101939000D01*
X223845000Y-103801000D02*
X223845000Y-105574000D01*
X223985000Y-100254000D02*
X223985000Y-102007000D01*
X223985000Y-103733000D02*
X223985000Y-105486000D01*
X224125000Y-100354000D02*
X224125000Y-102106000D01*
X224125000Y-103634000D02*
X224125000Y-105386000D01*
X224265000Y-100466000D02*
X224265000Y-102251000D01*
X224265000Y-103489000D02*
X224265000Y-105274000D01*
X224405000Y-100591000D02*
X224405000Y-102490000D01*
X224405000Y-103250000D02*
X224405000Y-105149000D01*
X224545000Y-100734000D02*
X224545000Y-105006000D01*
X224685000Y-100896000D02*
X224685000Y-104844000D01*
X224825000Y-101084000D02*
X224825000Y-104656000D01*
X224965000Y-101307000D02*
X224965000Y-104433000D01*
X225105000Y-101583000D02*
X225105000Y-104157000D01*
X225245000Y-101958000D02*
X225245000Y-103782000D01*
X224480000Y-102870000D02*
G75*
G03X224480000Y-102870000I-1000000J0D01*
G01*
X225417500Y-102870000D02*
G75*
G03X225417500Y-102870000I-3187500J0D01*
G01*
X199990000Y-118985000D02*
X198790000Y-118985000D01*
X198790000Y-117235000D02*
X199990000Y-117235000D01*
X192370000Y-117715000D02*
X191170000Y-117715000D01*
X191170000Y-115965000D02*
X192370000Y-115965000D01*
X167040000Y-95645000D02*
X168240000Y-95645000D01*
X168240000Y-97395000D02*
X167040000Y-97395000D01*
X177130000Y-97395000D02*
X175930000Y-97395000D01*
X175930000Y-95645000D02*
X177130000Y-95645000D01*
X188560000Y-97395000D02*
X187360000Y-97395000D01*
X187360000Y-95645000D02*
X188560000Y-95645000D01*
X199990000Y-97395000D02*
X198790000Y-97395000D01*
X198790000Y-95645000D02*
X199990000Y-95645000D01*
X211420000Y-97395000D02*
X210220000Y-97395000D01*
X210220000Y-95645000D02*
X211420000Y-95645000D01*
X222850000Y-97395000D02*
X221650000Y-97395000D01*
X221650000Y-95645000D02*
X222850000Y-95645000D01*
X179740000Y-109615000D02*
X180940000Y-109615000D01*
X180940000Y-111365000D02*
X179740000Y-111365000D01*
X194980000Y-103265000D02*
X196180000Y-103265000D01*
X196180000Y-105015000D02*
X194980000Y-105015000D01*
X180940000Y-125335000D02*
X179740000Y-125335000D01*
X179740000Y-123585000D02*
X180940000Y-123585000D01*
X194980000Y-123585000D02*
X196180000Y-123585000D01*
X196180000Y-125335000D02*
X194980000Y-125335000D01*
X184750000Y-117715000D02*
X183550000Y-117715000D01*
X183550000Y-115965000D02*
X184750000Y-115965000D01*
X180940000Y-103745000D02*
X179740000Y-103745000D01*
X179740000Y-101995000D02*
X180940000Y-101995000D01*
X187360000Y-123585000D02*
X188560000Y-123585000D01*
X188560000Y-125335000D02*
X187360000Y-125335000D01*
X159925000Y-114395000D02*
X160975000Y-114395000D01*
X159925000Y-104045000D02*
X160975000Y-104045000D01*
X170275000Y-104045000D02*
X169225000Y-104045000D01*
X170275000Y-114395000D02*
X169225000Y-114395000D01*
X159925000Y-114395000D02*
X159925000Y-113345000D01*
X170275000Y-114395000D02*
X170275000Y-113345000D01*
X170275000Y-104045000D02*
X170275000Y-105095000D01*
X159925000Y-104045000D02*
X159925000Y-105095000D01*
X160975000Y-114395000D02*
X160975000Y-115670000D01*
X215900000Y-87122000D02*
X226060000Y-87122000D01*
X226060000Y-92710000D02*
X215900000Y-92710000D01*
X220472000Y-86614000D02*
X220472000Y-84582000D01*
X222504000Y-86614000D02*
X222504000Y-84582000D01*
X224536000Y-87122000D02*
X224536000Y-86614000D01*
X224536000Y-86614000D02*
X218948000Y-86614000D01*
X218948000Y-86614000D02*
X218948000Y-87122000D01*
X222504000Y-84582000D02*
X220472000Y-84582000D01*
X218440000Y-93980000D02*
X218440000Y-92710000D01*
X220980000Y-93980000D02*
X220980000Y-92710000D01*
X223520000Y-93980000D02*
X223520000Y-92710000D01*
X215900000Y-92710000D02*
X215900000Y-87122000D01*
X226060000Y-92710000D02*
X226060000Y-87122000D01*
X204470000Y-87122000D02*
X214630000Y-87122000D01*
X214630000Y-92710000D02*
X204470000Y-92710000D01*
X209042000Y-86614000D02*
X209042000Y-84582000D01*
X211074000Y-86614000D02*
X211074000Y-84582000D01*
X213106000Y-87122000D02*
X213106000Y-86614000D01*
X213106000Y-86614000D02*
X207518000Y-86614000D01*
X207518000Y-86614000D02*
X207518000Y-87122000D01*
X211074000Y-84582000D02*
X209042000Y-84582000D01*
X207010000Y-93980000D02*
X207010000Y-92710000D01*
X209550000Y-93980000D02*
X209550000Y-92710000D01*
X212090000Y-93980000D02*
X212090000Y-92710000D01*
X204470000Y-92710000D02*
X204470000Y-87122000D01*
X214630000Y-92710000D02*
X214630000Y-87122000D01*
X193040000Y-87122000D02*
X203200000Y-87122000D01*
X203200000Y-92710000D02*
X193040000Y-92710000D01*
X197612000Y-86614000D02*
X197612000Y-84582000D01*
X199644000Y-86614000D02*
X199644000Y-84582000D01*
X201676000Y-87122000D02*
X201676000Y-86614000D01*
X201676000Y-86614000D02*
X196088000Y-86614000D01*
X196088000Y-86614000D02*
X196088000Y-87122000D01*
X199644000Y-84582000D02*
X197612000Y-84582000D01*
X195580000Y-93980000D02*
X195580000Y-92710000D01*
X198120000Y-93980000D02*
X198120000Y-92710000D01*
X200660000Y-93980000D02*
X200660000Y-92710000D01*
X193040000Y-92710000D02*
X193040000Y-87122000D01*
X203200000Y-92710000D02*
X203200000Y-87122000D01*
X181610000Y-87122000D02*
X191770000Y-87122000D01*
X191770000Y-92710000D02*
X181610000Y-92710000D01*
X186182000Y-86614000D02*
X186182000Y-84582000D01*
X188214000Y-86614000D02*
X188214000Y-84582000D01*
X190246000Y-87122000D02*
X190246000Y-86614000D01*
X190246000Y-86614000D02*
X184658000Y-86614000D01*
X184658000Y-86614000D02*
X184658000Y-87122000D01*
X188214000Y-84582000D02*
X186182000Y-84582000D01*
X184150000Y-93980000D02*
X184150000Y-92710000D01*
X186690000Y-93980000D02*
X186690000Y-92710000D01*
X189230000Y-93980000D02*
X189230000Y-92710000D01*
X181610000Y-92710000D02*
X181610000Y-87122000D01*
X191770000Y-92710000D02*
X191770000Y-87122000D01*
X170180000Y-87122000D02*
X180340000Y-87122000D01*
X180340000Y-92710000D02*
X170180000Y-92710000D01*
X174752000Y-86614000D02*
X174752000Y-84582000D01*
X176784000Y-86614000D02*
X176784000Y-84582000D01*
X178816000Y-87122000D02*
X178816000Y-86614000D01*
X178816000Y-86614000D02*
X173228000Y-86614000D01*
X173228000Y-86614000D02*
X173228000Y-87122000D01*
X176784000Y-84582000D02*
X174752000Y-84582000D01*
X172720000Y-93980000D02*
X172720000Y-92710000D01*
X175260000Y-93980000D02*
X175260000Y-92710000D01*
X177800000Y-93980000D02*
X177800000Y-92710000D01*
X170180000Y-92710000D02*
X170180000Y-87122000D01*
X180340000Y-92710000D02*
X180340000Y-87122000D01*
X158750000Y-87122000D02*
X168910000Y-87122000D01*
X168910000Y-92710000D02*
X158750000Y-92710000D01*
X163322000Y-86614000D02*
X163322000Y-84582000D01*
X165354000Y-86614000D02*
X165354000Y-84582000D01*
X167386000Y-87122000D02*
X167386000Y-86614000D01*
X167386000Y-86614000D02*
X161798000Y-86614000D01*
X161798000Y-86614000D02*
X161798000Y-87122000D01*
X165354000Y-84582000D02*
X163322000Y-84582000D01*
X161290000Y-93980000D02*
X161290000Y-92710000D01*
X163830000Y-93980000D02*
X163830000Y-92710000D01*
X166370000Y-93980000D02*
X166370000Y-92710000D01*
X158750000Y-92710000D02*
X158750000Y-87122000D01*
X168910000Y-92710000D02*
X168910000Y-87122000D01*
X179490000Y-113800000D02*
X179490000Y-114800000D01*
X181190000Y-114800000D02*
X181190000Y-113800000D01*
X206979520Y-125730000D02*
X206979520Y-119029480D01*
X206979520Y-119029480D02*
X208579720Y-119029480D01*
X223479360Y-129529840D02*
X224977960Y-129529840D01*
X224977960Y-129529840D02*
X224977960Y-119029480D01*
X224977960Y-119029480D02*
X223479360Y-119029480D01*
X209979260Y-129529840D02*
X209979260Y-131528820D01*
X209979260Y-131528820D02*
X206979520Y-131528820D01*
X206979520Y-131528820D02*
X206979520Y-125730000D01*
X206979520Y-125730000D02*
X208478120Y-125730000D01*
X218978480Y-134531100D02*
X218978480Y-144531080D01*
X218978480Y-144531080D02*
X212979000Y-144531080D01*
X212979000Y-144531080D02*
X212979000Y-134531100D01*
X219478860Y-129529840D02*
X219478860Y-134531100D01*
X219478860Y-134531100D02*
X212478620Y-134531100D01*
X212478620Y-134531100D02*
X212478620Y-129529840D01*
X223479360Y-129529840D02*
X223479360Y-119029480D01*
X223479360Y-119029480D02*
X208478120Y-119029480D01*
X208478120Y-119029480D02*
X208478120Y-129529840D01*
X208478120Y-129529840D02*
X223479360Y-129529840D01*
X158719520Y-125730000D02*
X158719520Y-119029480D01*
X158719520Y-119029480D02*
X160319720Y-119029480D01*
X175219360Y-129529840D02*
X176717960Y-129529840D01*
X176717960Y-129529840D02*
X176717960Y-119029480D01*
X176717960Y-119029480D02*
X175219360Y-119029480D01*
X161719260Y-129529840D02*
X161719260Y-131528820D01*
X161719260Y-131528820D02*
X158719520Y-131528820D01*
X158719520Y-131528820D02*
X158719520Y-125730000D01*
X158719520Y-125730000D02*
X160218120Y-125730000D01*
X170718480Y-134531100D02*
X170718480Y-144531080D01*
X170718480Y-144531080D02*
X164719000Y-144531080D01*
X164719000Y-144531080D02*
X164719000Y-134531100D01*
X171218860Y-129529840D02*
X171218860Y-134531100D01*
X171218860Y-134531100D02*
X164218620Y-134531100D01*
X164218620Y-134531100D02*
X164218620Y-129529840D01*
X175219360Y-129529840D02*
X175219360Y-119029480D01*
X175219360Y-119029480D02*
X160218120Y-119029480D01*
X160218120Y-119029480D02*
X160218120Y-129529840D01*
X160218120Y-129529840D02*
X175219360Y-129529840D01*
X187190000Y-109640000D02*
X186190000Y-109640000D01*
X186190000Y-111340000D02*
X187190000Y-111340000D01*
X176030000Y-117690000D02*
X177030000Y-117690000D01*
X177030000Y-115990000D02*
X176030000Y-115990000D01*
X188380000Y-103640000D02*
X188380000Y-104640000D01*
X190080000Y-104640000D02*
X190080000Y-103640000D01*
X222750000Y-108370000D02*
X221750000Y-108370000D01*
X221750000Y-110070000D02*
X222750000Y-110070000D01*
X205320000Y-109720000D02*
X205320000Y-108720000D01*
X203620000Y-108720000D02*
X203620000Y-109720000D01*
X204147143Y-109366666D02*
X204194762Y-109414285D01*
X204242381Y-109557142D01*
X204242381Y-109652380D01*
X204194762Y-109795238D01*
X204099524Y-109890476D01*
X204004286Y-109938095D01*
X203813810Y-109985714D01*
X203670952Y-109985714D01*
X203480476Y-109938095D01*
X203385238Y-109890476D01*
X203290000Y-109795238D01*
X203242381Y-109652380D01*
X203242381Y-109557142D01*
X203290000Y-109414285D01*
X203337619Y-109366666D01*
X203337619Y-108985714D02*
X203290000Y-108938095D01*
X203242381Y-108842857D01*
X203242381Y-108604761D01*
X203290000Y-108509523D01*
X203337619Y-108461904D01*
X203432857Y-108414285D01*
X203528095Y-108414285D01*
X203670952Y-108461904D01*
X204242381Y-109033333D01*
X204242381Y-108414285D01*
X207147143Y-108906666D02*
X207194762Y-108954285D01*
X207242381Y-109097142D01*
X207242381Y-109192380D01*
X207194762Y-109335238D01*
X207099524Y-109430476D01*
X207004286Y-109478095D01*
X206813810Y-109525714D01*
X206670952Y-109525714D01*
X206480476Y-109478095D01*
X206385238Y-109430476D01*
X206290000Y-109335238D01*
X206242381Y-109192380D01*
X206242381Y-109097142D01*
X206290000Y-108954285D01*
X206337619Y-108906666D01*
X206575714Y-108049523D02*
X207242381Y-108049523D01*
X206194762Y-108287619D02*
X206909048Y-108525714D01*
X206909048Y-107906666D01*
X222063334Y-98827143D02*
X222015715Y-98874762D01*
X221872858Y-98922381D01*
X221777620Y-98922381D01*
X221634762Y-98874762D01*
X221539524Y-98779524D01*
X221491905Y-98684286D01*
X221444286Y-98493810D01*
X221444286Y-98350952D01*
X221491905Y-98160476D01*
X221539524Y-98065238D01*
X221634762Y-97970000D01*
X221777620Y-97922381D01*
X221872858Y-97922381D01*
X222015715Y-97970000D01*
X222063334Y-98017619D01*
X222920477Y-97922381D02*
X222730000Y-97922381D01*
X222634762Y-97970000D01*
X222587143Y-98017619D01*
X222491905Y-98160476D01*
X222444286Y-98350952D01*
X222444286Y-98731905D01*
X222491905Y-98827143D01*
X222539524Y-98874762D01*
X222634762Y-98922381D01*
X222825239Y-98922381D01*
X222920477Y-98874762D01*
X222968096Y-98827143D01*
X223015715Y-98731905D01*
X223015715Y-98493810D01*
X222968096Y-98398571D01*
X222920477Y-98350952D01*
X222825239Y-98303333D01*
X222634762Y-98303333D01*
X222539524Y-98350952D01*
X222491905Y-98398571D01*
X222444286Y-98493810D01*
X198747143Y-116367143D02*
X198699524Y-116414762D01*
X198556667Y-116462381D01*
X198461429Y-116462381D01*
X198318571Y-116414762D01*
X198223333Y-116319524D01*
X198175714Y-116224286D01*
X198128095Y-116033810D01*
X198128095Y-115890952D01*
X198175714Y-115700476D01*
X198223333Y-115605238D01*
X198318571Y-115510000D01*
X198461429Y-115462381D01*
X198556667Y-115462381D01*
X198699524Y-115510000D01*
X198747143Y-115557619D01*
X199699524Y-116462381D02*
X199128095Y-116462381D01*
X199413809Y-116462381D02*
X199413809Y-115462381D01*
X199318571Y-115605238D01*
X199223333Y-115700476D01*
X199128095Y-115748095D01*
X200318571Y-115462381D02*
X200413810Y-115462381D01*
X200509048Y-115510000D01*
X200556667Y-115557619D01*
X200604286Y-115652857D01*
X200651905Y-115843333D01*
X200651905Y-116081429D01*
X200604286Y-116271905D01*
X200556667Y-116367143D01*
X200509048Y-116414762D01*
X200413810Y-116462381D01*
X200318571Y-116462381D01*
X200223333Y-116414762D01*
X200175714Y-116367143D01*
X200128095Y-116271905D01*
X200080476Y-116081429D01*
X200080476Y-115843333D01*
X200128095Y-115652857D01*
X200175714Y-115557619D01*
X200223333Y-115510000D01*
X200318571Y-115462381D01*
X191127143Y-115097143D02*
X191079524Y-115144762D01*
X190936667Y-115192381D01*
X190841429Y-115192381D01*
X190698571Y-115144762D01*
X190603333Y-115049524D01*
X190555714Y-114954286D01*
X190508095Y-114763810D01*
X190508095Y-114620952D01*
X190555714Y-114430476D01*
X190603333Y-114335238D01*
X190698571Y-114240000D01*
X190841429Y-114192381D01*
X190936667Y-114192381D01*
X191079524Y-114240000D01*
X191127143Y-114287619D01*
X192079524Y-115192381D02*
X191508095Y-115192381D01*
X191793809Y-115192381D02*
X191793809Y-114192381D01*
X191698571Y-114335238D01*
X191603333Y-114430476D01*
X191508095Y-114478095D01*
X193031905Y-115192381D02*
X192460476Y-115192381D01*
X192746190Y-115192381D02*
X192746190Y-114192381D01*
X192650952Y-114335238D01*
X192555714Y-114430476D01*
X192460476Y-114478095D01*
X167473334Y-99072381D02*
X167140000Y-98596190D01*
X166901905Y-99072381D02*
X166901905Y-98072381D01*
X167282858Y-98072381D01*
X167378096Y-98120000D01*
X167425715Y-98167619D01*
X167473334Y-98262857D01*
X167473334Y-98405714D01*
X167425715Y-98500952D01*
X167378096Y-98548571D01*
X167282858Y-98596190D01*
X166901905Y-98596190D01*
X168425715Y-99072381D02*
X167854286Y-99072381D01*
X168140000Y-99072381D02*
X168140000Y-98072381D01*
X168044762Y-98215238D01*
X167949524Y-98310476D01*
X167854286Y-98358095D01*
X176363334Y-94872381D02*
X176030000Y-94396190D01*
X175791905Y-94872381D02*
X175791905Y-93872381D01*
X176172858Y-93872381D01*
X176268096Y-93920000D01*
X176315715Y-93967619D01*
X176363334Y-94062857D01*
X176363334Y-94205714D01*
X176315715Y-94300952D01*
X176268096Y-94348571D01*
X176172858Y-94396190D01*
X175791905Y-94396190D01*
X176744286Y-93967619D02*
X176791905Y-93920000D01*
X176887143Y-93872381D01*
X177125239Y-93872381D01*
X177220477Y-93920000D01*
X177268096Y-93967619D01*
X177315715Y-94062857D01*
X177315715Y-94158095D01*
X177268096Y-94300952D01*
X176696667Y-94872381D01*
X177315715Y-94872381D01*
X187793334Y-94872381D02*
X187460000Y-94396190D01*
X187221905Y-94872381D02*
X187221905Y-93872381D01*
X187602858Y-93872381D01*
X187698096Y-93920000D01*
X187745715Y-93967619D01*
X187793334Y-94062857D01*
X187793334Y-94205714D01*
X187745715Y-94300952D01*
X187698096Y-94348571D01*
X187602858Y-94396190D01*
X187221905Y-94396190D01*
X188126667Y-93872381D02*
X188745715Y-93872381D01*
X188412381Y-94253333D01*
X188555239Y-94253333D01*
X188650477Y-94300952D01*
X188698096Y-94348571D01*
X188745715Y-94443810D01*
X188745715Y-94681905D01*
X188698096Y-94777143D01*
X188650477Y-94824762D01*
X188555239Y-94872381D01*
X188269524Y-94872381D01*
X188174286Y-94824762D01*
X188126667Y-94777143D01*
X199223334Y-94872381D02*
X198890000Y-94396190D01*
X198651905Y-94872381D02*
X198651905Y-93872381D01*
X199032858Y-93872381D01*
X199128096Y-93920000D01*
X199175715Y-93967619D01*
X199223334Y-94062857D01*
X199223334Y-94205714D01*
X199175715Y-94300952D01*
X199128096Y-94348571D01*
X199032858Y-94396190D01*
X198651905Y-94396190D01*
X200080477Y-94205714D02*
X200080477Y-94872381D01*
X199842381Y-93824762D02*
X199604286Y-94539048D01*
X200223334Y-94539048D01*
X210653334Y-94872381D02*
X210320000Y-94396190D01*
X210081905Y-94872381D02*
X210081905Y-93872381D01*
X210462858Y-93872381D01*
X210558096Y-93920000D01*
X210605715Y-93967619D01*
X210653334Y-94062857D01*
X210653334Y-94205714D01*
X210605715Y-94300952D01*
X210558096Y-94348571D01*
X210462858Y-94396190D01*
X210081905Y-94396190D01*
X211558096Y-93872381D02*
X211081905Y-93872381D01*
X211034286Y-94348571D01*
X211081905Y-94300952D01*
X211177143Y-94253333D01*
X211415239Y-94253333D01*
X211510477Y-94300952D01*
X211558096Y-94348571D01*
X211605715Y-94443810D01*
X211605715Y-94681905D01*
X211558096Y-94777143D01*
X211510477Y-94824762D01*
X211415239Y-94872381D01*
X211177143Y-94872381D01*
X211081905Y-94824762D01*
X211034286Y-94777143D01*
X222083334Y-94872381D02*
X221750000Y-94396190D01*
X221511905Y-94872381D02*
X221511905Y-93872381D01*
X221892858Y-93872381D01*
X221988096Y-93920000D01*
X222035715Y-93967619D01*
X222083334Y-94062857D01*
X222083334Y-94205714D01*
X222035715Y-94300952D01*
X221988096Y-94348571D01*
X221892858Y-94396190D01*
X221511905Y-94396190D01*
X222940477Y-93872381D02*
X222750000Y-93872381D01*
X222654762Y-93920000D01*
X222607143Y-93967619D01*
X222511905Y-94110476D01*
X222464286Y-94300952D01*
X222464286Y-94681905D01*
X222511905Y-94777143D01*
X222559524Y-94824762D01*
X222654762Y-94872381D01*
X222845239Y-94872381D01*
X222940477Y-94824762D01*
X222988096Y-94777143D01*
X223035715Y-94681905D01*
X223035715Y-94443810D01*
X222988096Y-94348571D01*
X222940477Y-94300952D01*
X222845239Y-94253333D01*
X222654762Y-94253333D01*
X222559524Y-94300952D01*
X222511905Y-94348571D01*
X222464286Y-94443810D01*
X180173334Y-113042381D02*
X179840000Y-112566190D01*
X179601905Y-113042381D02*
X179601905Y-112042381D01*
X179982858Y-112042381D01*
X180078096Y-112090000D01*
X180125715Y-112137619D01*
X180173334Y-112232857D01*
X180173334Y-112375714D01*
X180125715Y-112470952D01*
X180078096Y-112518571D01*
X179982858Y-112566190D01*
X179601905Y-112566190D01*
X180506667Y-112042381D02*
X181173334Y-112042381D01*
X180744762Y-113042381D01*
X195413334Y-106692381D02*
X195080000Y-106216190D01*
X194841905Y-106692381D02*
X194841905Y-105692381D01*
X195222858Y-105692381D01*
X195318096Y-105740000D01*
X195365715Y-105787619D01*
X195413334Y-105882857D01*
X195413334Y-106025714D01*
X195365715Y-106120952D01*
X195318096Y-106168571D01*
X195222858Y-106216190D01*
X194841905Y-106216190D01*
X195984762Y-106120952D02*
X195889524Y-106073333D01*
X195841905Y-106025714D01*
X195794286Y-105930476D01*
X195794286Y-105882857D01*
X195841905Y-105787619D01*
X195889524Y-105740000D01*
X195984762Y-105692381D01*
X196175239Y-105692381D01*
X196270477Y-105740000D01*
X196318096Y-105787619D01*
X196365715Y-105882857D01*
X196365715Y-105930476D01*
X196318096Y-106025714D01*
X196270477Y-106073333D01*
X196175239Y-106120952D01*
X195984762Y-106120952D01*
X195889524Y-106168571D01*
X195841905Y-106216190D01*
X195794286Y-106311429D01*
X195794286Y-106501905D01*
X195841905Y-106597143D01*
X195889524Y-106644762D01*
X195984762Y-106692381D01*
X196175239Y-106692381D01*
X196270477Y-106644762D01*
X196318096Y-106597143D01*
X196365715Y-106501905D01*
X196365715Y-106311429D01*
X196318096Y-106216190D01*
X196270477Y-106168571D01*
X196175239Y-106120952D01*
X179697143Y-122812381D02*
X179363809Y-122336190D01*
X179125714Y-122812381D02*
X179125714Y-121812381D01*
X179506667Y-121812381D01*
X179601905Y-121860000D01*
X179649524Y-121907619D01*
X179697143Y-122002857D01*
X179697143Y-122145714D01*
X179649524Y-122240952D01*
X179601905Y-122288571D01*
X179506667Y-122336190D01*
X179125714Y-122336190D01*
X180649524Y-122812381D02*
X180078095Y-122812381D01*
X180363809Y-122812381D02*
X180363809Y-121812381D01*
X180268571Y-121955238D01*
X180173333Y-122050476D01*
X180078095Y-122098095D01*
X181268571Y-121812381D02*
X181363810Y-121812381D01*
X181459048Y-121860000D01*
X181506667Y-121907619D01*
X181554286Y-122002857D01*
X181601905Y-122193333D01*
X181601905Y-122431429D01*
X181554286Y-122621905D01*
X181506667Y-122717143D01*
X181459048Y-122764762D01*
X181363810Y-122812381D01*
X181268571Y-122812381D01*
X181173333Y-122764762D01*
X181125714Y-122717143D01*
X181078095Y-122621905D01*
X181030476Y-122431429D01*
X181030476Y-122193333D01*
X181078095Y-122002857D01*
X181125714Y-121907619D01*
X181173333Y-121860000D01*
X181268571Y-121812381D01*
X194937143Y-127012381D02*
X194603809Y-126536190D01*
X194365714Y-127012381D02*
X194365714Y-126012381D01*
X194746667Y-126012381D01*
X194841905Y-126060000D01*
X194889524Y-126107619D01*
X194937143Y-126202857D01*
X194937143Y-126345714D01*
X194889524Y-126440952D01*
X194841905Y-126488571D01*
X194746667Y-126536190D01*
X194365714Y-126536190D01*
X195889524Y-127012381D02*
X195318095Y-127012381D01*
X195603809Y-127012381D02*
X195603809Y-126012381D01*
X195508571Y-126155238D01*
X195413333Y-126250476D01*
X195318095Y-126298095D01*
X196270476Y-126107619D02*
X196318095Y-126060000D01*
X196413333Y-126012381D01*
X196651429Y-126012381D01*
X196746667Y-126060000D01*
X196794286Y-126107619D01*
X196841905Y-126202857D01*
X196841905Y-126298095D01*
X196794286Y-126440952D01*
X196222857Y-127012381D01*
X196841905Y-127012381D01*
X183507143Y-115192381D02*
X183173809Y-114716190D01*
X182935714Y-115192381D02*
X182935714Y-114192381D01*
X183316667Y-114192381D01*
X183411905Y-114240000D01*
X183459524Y-114287619D01*
X183507143Y-114382857D01*
X183507143Y-114525714D01*
X183459524Y-114620952D01*
X183411905Y-114668571D01*
X183316667Y-114716190D01*
X182935714Y-114716190D01*
X184459524Y-115192381D02*
X183888095Y-115192381D01*
X184173809Y-115192381D02*
X184173809Y-114192381D01*
X184078571Y-114335238D01*
X183983333Y-114430476D01*
X183888095Y-114478095D01*
X184792857Y-114192381D02*
X185411905Y-114192381D01*
X185078571Y-114573333D01*
X185221429Y-114573333D01*
X185316667Y-114620952D01*
X185364286Y-114668571D01*
X185411905Y-114763810D01*
X185411905Y-115001905D01*
X185364286Y-115097143D01*
X185316667Y-115144762D01*
X185221429Y-115192381D01*
X184935714Y-115192381D01*
X184840476Y-115144762D01*
X184792857Y-115097143D01*
X179697143Y-101222381D02*
X179363809Y-100746190D01*
X179125714Y-101222381D02*
X179125714Y-100222381D01*
X179506667Y-100222381D01*
X179601905Y-100270000D01*
X179649524Y-100317619D01*
X179697143Y-100412857D01*
X179697143Y-100555714D01*
X179649524Y-100650952D01*
X179601905Y-100698571D01*
X179506667Y-100746190D01*
X179125714Y-100746190D01*
X180649524Y-101222381D02*
X180078095Y-101222381D01*
X180363809Y-101222381D02*
X180363809Y-100222381D01*
X180268571Y-100365238D01*
X180173333Y-100460476D01*
X180078095Y-100508095D01*
X181506667Y-100555714D02*
X181506667Y-101222381D01*
X181268571Y-100174762D02*
X181030476Y-100889048D01*
X181649524Y-100889048D01*
X187317143Y-127012381D02*
X186983809Y-126536190D01*
X186745714Y-127012381D02*
X186745714Y-126012381D01*
X187126667Y-126012381D01*
X187221905Y-126060000D01*
X187269524Y-126107619D01*
X187317143Y-126202857D01*
X187317143Y-126345714D01*
X187269524Y-126440952D01*
X187221905Y-126488571D01*
X187126667Y-126536190D01*
X186745714Y-126536190D01*
X188269524Y-127012381D02*
X187698095Y-127012381D01*
X187983809Y-127012381D02*
X187983809Y-126012381D01*
X187888571Y-126155238D01*
X187793333Y-126250476D01*
X187698095Y-126298095D01*
X189174286Y-126012381D02*
X188698095Y-126012381D01*
X188650476Y-126488571D01*
X188698095Y-126440952D01*
X188793333Y-126393333D01*
X189031429Y-126393333D01*
X189126667Y-126440952D01*
X189174286Y-126488571D01*
X189221905Y-126583810D01*
X189221905Y-126821905D01*
X189174286Y-126917143D01*
X189126667Y-126964762D01*
X189031429Y-127012381D01*
X188793333Y-127012381D01*
X188698095Y-126964762D01*
X188650476Y-126917143D01*
X157102381Y-109981905D02*
X157911905Y-109981905D01*
X158007143Y-109934286D01*
X158054762Y-109886667D01*
X158102381Y-109791429D01*
X158102381Y-109600952D01*
X158054762Y-109505714D01*
X158007143Y-109458095D01*
X157911905Y-109410476D01*
X157102381Y-109410476D01*
X158102381Y-108410476D02*
X158102381Y-108981905D01*
X158102381Y-108696191D02*
X157102381Y-108696191D01*
X157245238Y-108791429D01*
X157340476Y-108886667D01*
X157388095Y-108981905D01*
X219646667Y-91590762D02*
X219789524Y-91638381D01*
X220027620Y-91638381D01*
X220122858Y-91590762D01*
X220170477Y-91543143D01*
X220218096Y-91447905D01*
X220218096Y-91352667D01*
X220170477Y-91257429D01*
X220122858Y-91209810D01*
X220027620Y-91162190D01*
X219837143Y-91114571D01*
X219741905Y-91066952D01*
X219694286Y-91019333D01*
X219646667Y-90924095D01*
X219646667Y-90828857D01*
X219694286Y-90733619D01*
X219741905Y-90686000D01*
X219837143Y-90638381D01*
X220075239Y-90638381D01*
X220218096Y-90686000D01*
X220551429Y-90638381D02*
X220789524Y-91638381D01*
X220980001Y-90924095D01*
X221170477Y-91638381D01*
X221408572Y-90638381D01*
X222313334Y-91638381D02*
X221741905Y-91638381D01*
X222027619Y-91638381D02*
X222027619Y-90638381D01*
X221932381Y-90781238D01*
X221837143Y-90876476D01*
X221741905Y-90924095D01*
X208216667Y-91590762D02*
X208359524Y-91638381D01*
X208597620Y-91638381D01*
X208692858Y-91590762D01*
X208740477Y-91543143D01*
X208788096Y-91447905D01*
X208788096Y-91352667D01*
X208740477Y-91257429D01*
X208692858Y-91209810D01*
X208597620Y-91162190D01*
X208407143Y-91114571D01*
X208311905Y-91066952D01*
X208264286Y-91019333D01*
X208216667Y-90924095D01*
X208216667Y-90828857D01*
X208264286Y-90733619D01*
X208311905Y-90686000D01*
X208407143Y-90638381D01*
X208645239Y-90638381D01*
X208788096Y-90686000D01*
X209121429Y-90638381D02*
X209359524Y-91638381D01*
X209550001Y-90924095D01*
X209740477Y-91638381D01*
X209978572Y-90638381D01*
X210311905Y-90733619D02*
X210359524Y-90686000D01*
X210454762Y-90638381D01*
X210692858Y-90638381D01*
X210788096Y-90686000D01*
X210835715Y-90733619D01*
X210883334Y-90828857D01*
X210883334Y-90924095D01*
X210835715Y-91066952D01*
X210264286Y-91638381D01*
X210883334Y-91638381D01*
X196786667Y-91590762D02*
X196929524Y-91638381D01*
X197167620Y-91638381D01*
X197262858Y-91590762D01*
X197310477Y-91543143D01*
X197358096Y-91447905D01*
X197358096Y-91352667D01*
X197310477Y-91257429D01*
X197262858Y-91209810D01*
X197167620Y-91162190D01*
X196977143Y-91114571D01*
X196881905Y-91066952D01*
X196834286Y-91019333D01*
X196786667Y-90924095D01*
X196786667Y-90828857D01*
X196834286Y-90733619D01*
X196881905Y-90686000D01*
X196977143Y-90638381D01*
X197215239Y-90638381D01*
X197358096Y-90686000D01*
X197691429Y-90638381D02*
X197929524Y-91638381D01*
X198120001Y-90924095D01*
X198310477Y-91638381D01*
X198548572Y-90638381D01*
X198834286Y-90638381D02*
X199453334Y-90638381D01*
X199120000Y-91019333D01*
X199262858Y-91019333D01*
X199358096Y-91066952D01*
X199405715Y-91114571D01*
X199453334Y-91209810D01*
X199453334Y-91447905D01*
X199405715Y-91543143D01*
X199358096Y-91590762D01*
X199262858Y-91638381D01*
X198977143Y-91638381D01*
X198881905Y-91590762D01*
X198834286Y-91543143D01*
X185356667Y-91590762D02*
X185499524Y-91638381D01*
X185737620Y-91638381D01*
X185832858Y-91590762D01*
X185880477Y-91543143D01*
X185928096Y-91447905D01*
X185928096Y-91352667D01*
X185880477Y-91257429D01*
X185832858Y-91209810D01*
X185737620Y-91162190D01*
X185547143Y-91114571D01*
X185451905Y-91066952D01*
X185404286Y-91019333D01*
X185356667Y-90924095D01*
X185356667Y-90828857D01*
X185404286Y-90733619D01*
X185451905Y-90686000D01*
X185547143Y-90638381D01*
X185785239Y-90638381D01*
X185928096Y-90686000D01*
X186261429Y-90638381D02*
X186499524Y-91638381D01*
X186690001Y-90924095D01*
X186880477Y-91638381D01*
X187118572Y-90638381D01*
X187928096Y-90971714D02*
X187928096Y-91638381D01*
X187690000Y-90590762D02*
X187451905Y-91305048D01*
X188070953Y-91305048D01*
X173926667Y-91590762D02*
X174069524Y-91638381D01*
X174307620Y-91638381D01*
X174402858Y-91590762D01*
X174450477Y-91543143D01*
X174498096Y-91447905D01*
X174498096Y-91352667D01*
X174450477Y-91257429D01*
X174402858Y-91209810D01*
X174307620Y-91162190D01*
X174117143Y-91114571D01*
X174021905Y-91066952D01*
X173974286Y-91019333D01*
X173926667Y-90924095D01*
X173926667Y-90828857D01*
X173974286Y-90733619D01*
X174021905Y-90686000D01*
X174117143Y-90638381D01*
X174355239Y-90638381D01*
X174498096Y-90686000D01*
X174831429Y-90638381D02*
X175069524Y-91638381D01*
X175260001Y-90924095D01*
X175450477Y-91638381D01*
X175688572Y-90638381D01*
X176545715Y-90638381D02*
X176069524Y-90638381D01*
X176021905Y-91114571D01*
X176069524Y-91066952D01*
X176164762Y-91019333D01*
X176402858Y-91019333D01*
X176498096Y-91066952D01*
X176545715Y-91114571D01*
X176593334Y-91209810D01*
X176593334Y-91447905D01*
X176545715Y-91543143D01*
X176498096Y-91590762D01*
X176402858Y-91638381D01*
X176164762Y-91638381D01*
X176069524Y-91590762D01*
X176021905Y-91543143D01*
X162496667Y-91590762D02*
X162639524Y-91638381D01*
X162877620Y-91638381D01*
X162972858Y-91590762D01*
X163020477Y-91543143D01*
X163068096Y-91447905D01*
X163068096Y-91352667D01*
X163020477Y-91257429D01*
X162972858Y-91209810D01*
X162877620Y-91162190D01*
X162687143Y-91114571D01*
X162591905Y-91066952D01*
X162544286Y-91019333D01*
X162496667Y-90924095D01*
X162496667Y-90828857D01*
X162544286Y-90733619D01*
X162591905Y-90686000D01*
X162687143Y-90638381D01*
X162925239Y-90638381D01*
X163068096Y-90686000D01*
X163401429Y-90638381D02*
X163639524Y-91638381D01*
X163830001Y-90924095D01*
X164020477Y-91638381D01*
X164258572Y-90638381D01*
X165068096Y-90638381D02*
X164877619Y-90638381D01*
X164782381Y-90686000D01*
X164734762Y-90733619D01*
X164639524Y-90876476D01*
X164591905Y-91066952D01*
X164591905Y-91447905D01*
X164639524Y-91543143D01*
X164687143Y-91590762D01*
X164782381Y-91638381D01*
X164972858Y-91638381D01*
X165068096Y-91590762D01*
X165115715Y-91543143D01*
X165163334Y-91447905D01*
X165163334Y-91209810D01*
X165115715Y-91114571D01*
X165068096Y-91066952D01*
X164972858Y-91019333D01*
X164782381Y-91019333D01*
X164687143Y-91066952D01*
X164639524Y-91114571D01*
X164591905Y-91209810D01*
X178597143Y-114466666D02*
X178644762Y-114514285D01*
X178692381Y-114657142D01*
X178692381Y-114752380D01*
X178644762Y-114895238D01*
X178549524Y-114990476D01*
X178454286Y-115038095D01*
X178263810Y-115085714D01*
X178120952Y-115085714D01*
X177930476Y-115038095D01*
X177835238Y-114990476D01*
X177740000Y-114895238D01*
X177692381Y-114752380D01*
X177692381Y-114657142D01*
X177740000Y-114514285D01*
X177787619Y-114466666D01*
X177692381Y-114133333D02*
X177692381Y-113514285D01*
X178073333Y-113847619D01*
X178073333Y-113704761D01*
X178120952Y-113609523D01*
X178168571Y-113561904D01*
X178263810Y-113514285D01*
X178501905Y-113514285D01*
X178597143Y-113561904D01*
X178644762Y-113609523D01*
X178692381Y-113704761D01*
X178692381Y-113990476D01*
X178644762Y-114085714D01*
X178597143Y-114133333D01*
X227861121Y-126372857D02*
X227384930Y-126706191D01*
X227861121Y-126944286D02*
X226861121Y-126944286D01*
X226861121Y-126563333D01*
X226908740Y-126468095D01*
X226956359Y-126420476D01*
X227051597Y-126372857D01*
X227194454Y-126372857D01*
X227289692Y-126420476D01*
X227337311Y-126468095D01*
X227384930Y-126563333D01*
X227384930Y-126944286D01*
X227861121Y-125420476D02*
X227861121Y-125991905D01*
X227861121Y-125706191D02*
X226861121Y-125706191D01*
X227003978Y-125801429D01*
X227099216Y-125896667D01*
X227146835Y-125991905D01*
X227861121Y-124468095D02*
X227861121Y-125039524D01*
X227861121Y-124753810D02*
X226861121Y-124753810D01*
X227003978Y-124849048D01*
X227099216Y-124944286D01*
X227146835Y-125039524D01*
X179601121Y-125896666D02*
X179124930Y-126230000D01*
X179601121Y-126468095D02*
X178601121Y-126468095D01*
X178601121Y-126087142D01*
X178648740Y-125991904D01*
X178696359Y-125944285D01*
X178791597Y-125896666D01*
X178934454Y-125896666D01*
X179029692Y-125944285D01*
X179077311Y-125991904D01*
X179124930Y-126087142D01*
X179124930Y-126468095D01*
X179601121Y-125420476D02*
X179601121Y-125230000D01*
X179553502Y-125134761D01*
X179505883Y-125087142D01*
X179363026Y-124991904D01*
X179172550Y-124944285D01*
X178791597Y-124944285D01*
X178696359Y-124991904D01*
X178648740Y-125039523D01*
X178601121Y-125134761D01*
X178601121Y-125325238D01*
X178648740Y-125420476D01*
X178696359Y-125468095D01*
X178791597Y-125515714D01*
X179029692Y-125515714D01*
X179124930Y-125468095D01*
X179172550Y-125420476D01*
X179220169Y-125325238D01*
X179220169Y-125134761D01*
X179172550Y-125039523D01*
X179124930Y-124991904D01*
X179029692Y-124944285D01*
X186523334Y-108747143D02*
X186475715Y-108794762D01*
X186332858Y-108842381D01*
X186237620Y-108842381D01*
X186094762Y-108794762D01*
X185999524Y-108699524D01*
X185951905Y-108604286D01*
X185904286Y-108413810D01*
X185904286Y-108270952D01*
X185951905Y-108080476D01*
X185999524Y-107985238D01*
X186094762Y-107890000D01*
X186237620Y-107842381D01*
X186332858Y-107842381D01*
X186475715Y-107890000D01*
X186523334Y-107937619D01*
X186999524Y-108842381D02*
X187190000Y-108842381D01*
X187285239Y-108794762D01*
X187332858Y-108747143D01*
X187428096Y-108604286D01*
X187475715Y-108413810D01*
X187475715Y-108032857D01*
X187428096Y-107937619D01*
X187380477Y-107890000D01*
X187285239Y-107842381D01*
X187094762Y-107842381D01*
X186999524Y-107890000D01*
X186951905Y-107937619D01*
X186904286Y-108032857D01*
X186904286Y-108270952D01*
X186951905Y-108366190D01*
X186999524Y-108413810D01*
X187094762Y-108461429D01*
X187285239Y-108461429D01*
X187380477Y-108413810D01*
X187428096Y-108366190D01*
X187475715Y-108270952D01*
X176363334Y-119297143D02*
X176315715Y-119344762D01*
X176172858Y-119392381D01*
X176077620Y-119392381D01*
X175934762Y-119344762D01*
X175839524Y-119249524D01*
X175791905Y-119154286D01*
X175744286Y-118963810D01*
X175744286Y-118820952D01*
X175791905Y-118630476D01*
X175839524Y-118535238D01*
X175934762Y-118440000D01*
X176077620Y-118392381D01*
X176172858Y-118392381D01*
X176315715Y-118440000D01*
X176363334Y-118487619D01*
X176696667Y-118392381D02*
X177363334Y-118392381D01*
X176934762Y-119392381D01*
X187487143Y-104306666D02*
X187534762Y-104354285D01*
X187582381Y-104497142D01*
X187582381Y-104592380D01*
X187534762Y-104735238D01*
X187439524Y-104830476D01*
X187344286Y-104878095D01*
X187153810Y-104925714D01*
X187010952Y-104925714D01*
X186820476Y-104878095D01*
X186725238Y-104830476D01*
X186630000Y-104735238D01*
X186582381Y-104592380D01*
X186582381Y-104497142D01*
X186630000Y-104354285D01*
X186677619Y-104306666D01*
X187010952Y-103735238D02*
X186963333Y-103830476D01*
X186915714Y-103878095D01*
X186820476Y-103925714D01*
X186772857Y-103925714D01*
X186677619Y-103878095D01*
X186630000Y-103830476D01*
X186582381Y-103735238D01*
X186582381Y-103544761D01*
X186630000Y-103449523D01*
X186677619Y-103401904D01*
X186772857Y-103354285D01*
X186820476Y-103354285D01*
X186915714Y-103401904D01*
X186963333Y-103449523D01*
X187010952Y-103544761D01*
X187010952Y-103735238D01*
X187058571Y-103830476D01*
X187106190Y-103878095D01*
X187201429Y-103925714D01*
X187391905Y-103925714D01*
X187487143Y-103878095D01*
X187534762Y-103830476D01*
X187582381Y-103735238D01*
X187582381Y-103544761D01*
X187534762Y-103449523D01*
X187487143Y-103401904D01*
X187391905Y-103354285D01*
X187201429Y-103354285D01*
X187106190Y-103401904D01*
X187058571Y-103449523D01*
X187010952Y-103544761D01*
X222083334Y-107477143D02*
X222035715Y-107524762D01*
X221892858Y-107572381D01*
X221797620Y-107572381D01*
X221654762Y-107524762D01*
X221559524Y-107429524D01*
X221511905Y-107334286D01*
X221464286Y-107143810D01*
X221464286Y-107000952D01*
X221511905Y-106810476D01*
X221559524Y-106715238D01*
X221654762Y-106620000D01*
X221797620Y-106572381D01*
X221892858Y-106572381D01*
X222035715Y-106620000D01*
X222083334Y-106667619D01*
X222988096Y-106572381D02*
X222511905Y-106572381D01*
X222464286Y-107048571D01*
X222511905Y-107000952D01*
X222607143Y-106953333D01*
X222845239Y-106953333D01*
X222940477Y-107000952D01*
X222988096Y-107048571D01*
X223035715Y-107143810D01*
X223035715Y-107381905D01*
X222988096Y-107477143D01*
X222940477Y-107524762D01*
X222845239Y-107572381D01*
X222607143Y-107572381D01*
X222511905Y-107524762D01*
X222464286Y-107477143D01*
X206927143Y-109386666D02*
X206974762Y-109434285D01*
X207022381Y-109577142D01*
X207022381Y-109672380D01*
X206974762Y-109815238D01*
X206879524Y-109910476D01*
X206784286Y-109958095D01*
X206593810Y-110005714D01*
X206450952Y-110005714D01*
X206260476Y-109958095D01*
X206165238Y-109910476D01*
X206070000Y-109815238D01*
X206022381Y-109672380D01*
X206022381Y-109577142D01*
X206070000Y-109434285D01*
X206117619Y-109386666D01*
X207022381Y-108434285D02*
X207022381Y-109005714D01*
X207022381Y-108720000D02*
X206022381Y-108720000D01*
X206165238Y-108815238D01*
X206260476Y-108910476D01*
X206308095Y-109005714D01*
%LPC*%
D12*
X199390000Y-110450000D03*
D13*
X199390000Y-107950000D03*
D12*
X212090000Y-106990000D03*
D13*
X212090000Y-110490000D03*
D12*
X223480000Y-102870000D03*
D13*
X220980000Y-102870000D03*
D14*
X198440000Y-118110000D03*
X200340000Y-118110000D03*
X190820000Y-116840000D03*
X192720000Y-116840000D03*
D15*
X168990000Y-96520000D03*
X166290000Y-96520000D03*
X175180000Y-96520000D03*
X177880000Y-96520000D03*
X186610000Y-96520000D03*
X189310000Y-96520000D03*
X198040000Y-96520000D03*
X200740000Y-96520000D03*
X209470000Y-96520000D03*
X212170000Y-96520000D03*
X220900000Y-96520000D03*
X223600000Y-96520000D03*
X181690000Y-110490000D03*
X178990000Y-110490000D03*
X196930000Y-104140000D03*
X194230000Y-104140000D03*
X178990000Y-124460000D03*
X181690000Y-124460000D03*
X196930000Y-124460000D03*
X194230000Y-124460000D03*
X182800000Y-116840000D03*
X185500000Y-116840000D03*
X178990000Y-102870000D03*
X181690000Y-102870000D03*
X189310000Y-124460000D03*
X186610000Y-124460000D03*
D16*
X161350000Y-114920000D03*
X161850000Y-114920000D03*
X162350000Y-114920000D03*
X162850000Y-114920000D03*
X163350000Y-114920000D03*
X163850000Y-114920000D03*
X164350000Y-114920000D03*
X164850000Y-114920000D03*
X165350000Y-114920000D03*
X165850000Y-114920000D03*
X166350000Y-114920000D03*
X166850000Y-114920000D03*
X167350000Y-114920000D03*
X167850000Y-114920000D03*
X168350000Y-114920000D03*
X168850000Y-114920000D03*
D17*
X170800000Y-112970000D03*
X170800000Y-112470000D03*
X170800000Y-111970000D03*
X170800000Y-111470000D03*
X170800000Y-110970000D03*
X170800000Y-110470000D03*
X170800000Y-109970000D03*
X170800000Y-109470000D03*
X170800000Y-108970000D03*
X170800000Y-108470000D03*
X170800000Y-107970000D03*
X170800000Y-107470000D03*
X170800000Y-106970000D03*
X170800000Y-106470000D03*
X170800000Y-105970000D03*
X170800000Y-105470000D03*
D16*
X168850000Y-103520000D03*
X168350000Y-103520000D03*
X167850000Y-103520000D03*
X167350000Y-103520000D03*
X166850000Y-103520000D03*
X166350000Y-103520000D03*
X165850000Y-103520000D03*
X165350000Y-103520000D03*
X164850000Y-103520000D03*
X164350000Y-103520000D03*
X163850000Y-103520000D03*
X163350000Y-103520000D03*
X162850000Y-103520000D03*
X162350000Y-103520000D03*
X161850000Y-103520000D03*
X161350000Y-103520000D03*
D17*
X159400000Y-105470000D03*
X159400000Y-105970000D03*
X159400000Y-106470000D03*
X159400000Y-106970000D03*
X159400000Y-107470000D03*
X159400000Y-107970000D03*
X159400000Y-108470000D03*
X159400000Y-108970000D03*
X159400000Y-109470000D03*
X159400000Y-109970000D03*
X159400000Y-110470000D03*
X159400000Y-110970000D03*
X159400000Y-111470000D03*
X159400000Y-111970000D03*
X159400000Y-112470000D03*
X159400000Y-112970000D03*
D18*
X223520000Y-93980000D03*
D19*
X220980000Y-93980000D03*
X218440000Y-93980000D03*
D18*
X212090000Y-93980000D03*
D19*
X209550000Y-93980000D03*
X207010000Y-93980000D03*
D18*
X200660000Y-93980000D03*
D19*
X198120000Y-93980000D03*
X195580000Y-93980000D03*
D18*
X189230000Y-93980000D03*
D19*
X186690000Y-93980000D03*
X184150000Y-93980000D03*
D18*
X177800000Y-93980000D03*
D19*
X175260000Y-93980000D03*
X172720000Y-93980000D03*
D18*
X166370000Y-93980000D03*
D19*
X163830000Y-93980000D03*
X161290000Y-93980000D03*
D20*
X180340000Y-115550000D03*
X180340000Y-113050000D03*
D21*
X215978740Y-125730000D03*
X210977480Y-125730000D03*
X220980000Y-125730000D03*
X167718740Y-125730000D03*
X162717480Y-125730000D03*
X172720000Y-125730000D03*
D22*
X185440000Y-110490000D03*
X187940000Y-110490000D03*
X177780000Y-116840000D03*
X175280000Y-116840000D03*
D20*
X189230000Y-105390000D03*
X189230000Y-102890000D03*
D22*
X221000000Y-109220000D03*
X223500000Y-109220000D03*
D20*
X204470000Y-107970000D03*
X204470000Y-110470000D03*
M02*
