G04 #@! TF.FileFunction,Copper,L2,Bot,Signal*
%FSLAX46Y46*%
G04 Gerber Fmt 4.6, Leading zero omitted, Abs format (unit mm)*
G04 Created by KiCad (PCBNEW 4.0.2-stable) date 2016年05月15日日曜日 13:14:42*
%MOMM*%
G01*
G04 APERTURE LIST*
%ADD10C,0.100000*%
%ADD11C,1.300000*%
%ADD12R,1.300000X1.300000*%
%ADD13R,1.397000X1.397000*%
%ADD14C,1.397000*%
%ADD15C,2.499360*%
%ADD16C,0.600000*%
%ADD17C,0.250000*%
G04 APERTURE END LIST*
D10*
D11*
X199390000Y-110450000D03*
D12*
X199390000Y-107950000D03*
D11*
X212090000Y-106990000D03*
D12*
X212090000Y-110490000D03*
D11*
X223480000Y-102870000D03*
D12*
X220980000Y-102870000D03*
D13*
X223520000Y-93980000D03*
D14*
X220980000Y-93980000D03*
X218440000Y-93980000D03*
D13*
X212090000Y-93980000D03*
D14*
X209550000Y-93980000D03*
X207010000Y-93980000D03*
D13*
X200660000Y-93980000D03*
D14*
X198120000Y-93980000D03*
X195580000Y-93980000D03*
D13*
X189230000Y-93980000D03*
D14*
X186690000Y-93980000D03*
X184150000Y-93980000D03*
D13*
X177800000Y-93980000D03*
D14*
X175260000Y-93980000D03*
X172720000Y-93980000D03*
D13*
X166370000Y-93980000D03*
D14*
X163830000Y-93980000D03*
X161290000Y-93980000D03*
D15*
X215978740Y-125730000D03*
X210977480Y-125730000D03*
X220980000Y-125730000D03*
X167718740Y-125730000D03*
X162717480Y-125730000D03*
X172720000Y-125730000D03*
D16*
X183515000Y-112395000D03*
X194310000Y-107950000D03*
X219075000Y-95250000D03*
X209550000Y-95250000D03*
X191135000Y-113030000D03*
X194310000Y-113030000D03*
X181610000Y-114300000D03*
X207010000Y-113665000D03*
X179070000Y-115570000D03*
X175895000Y-112395000D03*
X175895000Y-100965000D03*
X175260000Y-111125000D03*
X176530000Y-106680000D03*
X177800000Y-114935000D03*
X176530000Y-111125000D03*
X173990000Y-116840000D03*
X181610000Y-118110000D03*
X174625000Y-106045000D03*
X174625000Y-111760000D03*
X189230000Y-109220000D03*
X182880000Y-109220000D03*
X175260000Y-95250000D03*
X181610000Y-95250000D03*
X209550000Y-97790000D03*
X213995000Y-97790000D03*
X186690000Y-97790000D03*
X192405000Y-97790000D03*
X218440000Y-98425000D03*
X178990000Y-109140000D03*
X177800000Y-97790000D03*
X198755000Y-98425000D03*
X203835000Y-104140000D03*
X173990000Y-104775000D03*
X173990000Y-113665000D03*
D17*
X191135000Y-112395000D02*
X183515000Y-112395000D01*
X191135000Y-107950000D02*
X191135000Y-112395000D01*
X194310000Y-107950000D02*
X191135000Y-107950000D01*
X219075000Y-95250000D02*
X209550000Y-95250000D01*
X194310000Y-113030000D02*
X191135000Y-113030000D01*
X206375000Y-114300000D02*
X181610000Y-114300000D01*
X207010000Y-113665000D02*
X206375000Y-114300000D01*
X175895000Y-115570000D02*
X179070000Y-115570000D01*
X175895000Y-112395000D02*
X175895000Y-115570000D01*
X175895000Y-110490000D02*
X175895000Y-100965000D01*
X175260000Y-111125000D02*
X175895000Y-110490000D01*
X176530000Y-106680000D02*
X176530000Y-111125000D01*
X177800000Y-112395000D02*
X177800000Y-114935000D01*
X176530000Y-112395000D02*
X177800000Y-112395000D01*
X176530000Y-111125000D02*
X176530000Y-112395000D01*
X174625000Y-111760000D02*
X174625000Y-115570000D01*
X173990000Y-118110000D02*
X181610000Y-118110000D01*
X173990000Y-115570000D02*
X173990000Y-116840000D01*
X173990000Y-116840000D02*
X173990000Y-118110000D01*
X174625000Y-115570000D02*
X173990000Y-115570000D01*
X174625000Y-111760000D02*
X174625000Y-106045000D01*
X182880000Y-109220000D02*
X189230000Y-109220000D01*
X181610000Y-95250000D02*
X175260000Y-95250000D01*
X213995000Y-97790000D02*
X209550000Y-97790000D01*
X192405000Y-97790000D02*
X186690000Y-97790000D01*
X209550000Y-98425000D02*
X203835000Y-98425000D01*
X218440000Y-98425000D02*
X209550000Y-98425000D01*
X177800000Y-106045000D02*
X177800000Y-97790000D01*
X179070000Y-107315000D02*
X177800000Y-106045000D01*
X179070000Y-109060000D02*
X179070000Y-107315000D01*
X178990000Y-109140000D02*
X179070000Y-109060000D01*
X203835000Y-98425000D02*
X198755000Y-98425000D01*
X203835000Y-104140000D02*
X203835000Y-98425000D01*
X173990000Y-113665000D02*
X173990000Y-104775000D01*
M02*
