G04 #@! TF.FileFunction,Copper,L1,Top,Signal*
%FSLAX46Y46*%
G04 Gerber Fmt 4.6, Leading zero omitted, Abs format (unit mm)*
G04 Created by KiCad (PCBNEW 4.0.2-stable) date 2016年05月15日日曜日 13:14:42*
%MOMM*%
G01*
G04 APERTURE LIST*
%ADD10C,0.100000*%
%ADD11C,1.300000*%
%ADD12R,1.300000X1.300000*%
%ADD13R,0.700000X1.300000*%
%ADD14R,1.500000X1.300000*%
%ADD15R,0.300000X1.500000*%
%ADD16R,1.500000X0.300000*%
%ADD17R,1.397000X1.397000*%
%ADD18C,1.397000*%
%ADD19R,1.250000X1.500000*%
%ADD20C,2.499360*%
%ADD21R,1.500000X1.250000*%
%ADD22C,0.600000*%
%ADD23C,0.250000*%
G04 APERTURE END LIST*
D10*
D11*
X199390000Y-110450000D03*
D12*
X199390000Y-107950000D03*
D11*
X212090000Y-106990000D03*
D12*
X212090000Y-110490000D03*
D11*
X223480000Y-102870000D03*
D12*
X220980000Y-102870000D03*
D13*
X198440000Y-118110000D03*
X200340000Y-118110000D03*
X190820000Y-116840000D03*
X192720000Y-116840000D03*
D14*
X168990000Y-96520000D03*
X166290000Y-96520000D03*
X175180000Y-96520000D03*
X177880000Y-96520000D03*
X186610000Y-96520000D03*
X189310000Y-96520000D03*
X198040000Y-96520000D03*
X200740000Y-96520000D03*
X209470000Y-96520000D03*
X212170000Y-96520000D03*
X220900000Y-96520000D03*
X223600000Y-96520000D03*
X181690000Y-110490000D03*
X178990000Y-110490000D03*
X196930000Y-104140000D03*
X194230000Y-104140000D03*
X178990000Y-124460000D03*
X181690000Y-124460000D03*
X196930000Y-124460000D03*
X194230000Y-124460000D03*
X182800000Y-116840000D03*
X185500000Y-116840000D03*
X178990000Y-102870000D03*
X181690000Y-102870000D03*
X189310000Y-124460000D03*
X186610000Y-124460000D03*
D15*
X161350000Y-114920000D03*
X161850000Y-114920000D03*
X162350000Y-114920000D03*
X162850000Y-114920000D03*
X163350000Y-114920000D03*
X163850000Y-114920000D03*
X164350000Y-114920000D03*
X164850000Y-114920000D03*
X165350000Y-114920000D03*
X165850000Y-114920000D03*
X166350000Y-114920000D03*
X166850000Y-114920000D03*
X167350000Y-114920000D03*
X167850000Y-114920000D03*
X168350000Y-114920000D03*
X168850000Y-114920000D03*
D16*
X170800000Y-112970000D03*
X170800000Y-112470000D03*
X170800000Y-111970000D03*
X170800000Y-111470000D03*
X170800000Y-110970000D03*
X170800000Y-110470000D03*
X170800000Y-109970000D03*
X170800000Y-109470000D03*
X170800000Y-108970000D03*
X170800000Y-108470000D03*
X170800000Y-107970000D03*
X170800000Y-107470000D03*
X170800000Y-106970000D03*
X170800000Y-106470000D03*
X170800000Y-105970000D03*
X170800000Y-105470000D03*
D15*
X168850000Y-103520000D03*
X168350000Y-103520000D03*
X167850000Y-103520000D03*
X167350000Y-103520000D03*
X166850000Y-103520000D03*
X166350000Y-103520000D03*
X165850000Y-103520000D03*
X165350000Y-103520000D03*
X164850000Y-103520000D03*
X164350000Y-103520000D03*
X163850000Y-103520000D03*
X163350000Y-103520000D03*
X162850000Y-103520000D03*
X162350000Y-103520000D03*
X161850000Y-103520000D03*
X161350000Y-103520000D03*
D16*
X159400000Y-105470000D03*
X159400000Y-105970000D03*
X159400000Y-106470000D03*
X159400000Y-106970000D03*
X159400000Y-107470000D03*
X159400000Y-107970000D03*
X159400000Y-108470000D03*
X159400000Y-108970000D03*
X159400000Y-109470000D03*
X159400000Y-109970000D03*
X159400000Y-110470000D03*
X159400000Y-110970000D03*
X159400000Y-111470000D03*
X159400000Y-111970000D03*
X159400000Y-112470000D03*
X159400000Y-112970000D03*
D17*
X223520000Y-93980000D03*
D18*
X220980000Y-93980000D03*
X218440000Y-93980000D03*
D17*
X212090000Y-93980000D03*
D18*
X209550000Y-93980000D03*
X207010000Y-93980000D03*
D17*
X200660000Y-93980000D03*
D18*
X198120000Y-93980000D03*
X195580000Y-93980000D03*
D17*
X189230000Y-93980000D03*
D18*
X186690000Y-93980000D03*
X184150000Y-93980000D03*
D17*
X177800000Y-93980000D03*
D18*
X175260000Y-93980000D03*
X172720000Y-93980000D03*
D17*
X166370000Y-93980000D03*
D18*
X163830000Y-93980000D03*
X161290000Y-93980000D03*
D19*
X180340000Y-115550000D03*
X180340000Y-113050000D03*
D20*
X215978740Y-125730000D03*
X210977480Y-125730000D03*
X220980000Y-125730000D03*
X167718740Y-125730000D03*
X162717480Y-125730000D03*
X172720000Y-125730000D03*
D21*
X185440000Y-110490000D03*
X187940000Y-110490000D03*
X177780000Y-116840000D03*
X175280000Y-116840000D03*
D19*
X189230000Y-105390000D03*
X189230000Y-102890000D03*
D21*
X221000000Y-109220000D03*
X223500000Y-109220000D03*
D19*
X204470000Y-107970000D03*
X204470000Y-110470000D03*
D22*
X183515000Y-112395000D03*
X194310000Y-107950000D03*
X219075000Y-95250000D03*
X209550000Y-95250000D03*
X191135000Y-113030000D03*
X194310000Y-113030000D03*
X181610000Y-114300000D03*
X207010000Y-113665000D03*
X179070000Y-115570000D03*
X175895000Y-112395000D03*
X175895000Y-100965000D03*
X175260000Y-111125000D03*
X176530000Y-106680000D03*
X177800000Y-114935000D03*
X176530000Y-111125000D03*
X173990000Y-116840000D03*
X181610000Y-118110000D03*
X174625000Y-106045000D03*
X174625000Y-111760000D03*
X189230000Y-109220000D03*
X182880000Y-109220000D03*
X175260000Y-95250000D03*
X181610000Y-95250000D03*
X209550000Y-97790000D03*
X213995000Y-97790000D03*
X186690000Y-97790000D03*
X192405000Y-97790000D03*
X218440000Y-98425000D03*
X178990000Y-109140000D03*
X177800000Y-97790000D03*
X198755000Y-98425000D03*
X203835000Y-104140000D03*
X173990000Y-104775000D03*
X173990000Y-113665000D03*
D23*
X199390000Y-107950000D02*
X194310000Y-107950000D01*
X181690000Y-111840000D02*
X181690000Y-110490000D01*
X182245000Y-112395000D02*
X181690000Y-111840000D01*
X183515000Y-112395000D02*
X182245000Y-112395000D01*
X199390000Y-107950000D02*
X204450000Y-107950000D01*
X204450000Y-107950000D02*
X204470000Y-107970000D01*
X170800000Y-109470000D02*
X177415000Y-109470000D01*
X177415000Y-109470000D02*
X177800000Y-109855000D01*
X177800000Y-109855000D02*
X177800000Y-111760000D01*
X177800000Y-111760000D02*
X181610000Y-111760000D01*
X181610000Y-111760000D02*
X181690000Y-111680000D01*
X181690000Y-111680000D02*
X181690000Y-110490000D01*
X209550000Y-92075000D02*
X209550000Y-93980000D01*
X196215000Y-92075000D02*
X209550000Y-92075000D01*
X175260000Y-92075000D02*
X165100000Y-92075000D01*
X165100000Y-92075000D02*
X163830000Y-93345000D01*
X163830000Y-93345000D02*
X163830000Y-93980000D01*
X186690000Y-93980000D02*
X184785000Y-92075000D01*
X175260000Y-92075000D02*
X175260000Y-93980000D01*
X184785000Y-92075000D02*
X175260000Y-92075000D01*
X186690000Y-93980000D02*
X186690000Y-93345000D01*
X186690000Y-93345000D02*
X187960000Y-92075000D01*
X187960000Y-92075000D02*
X196215000Y-92075000D01*
X196215000Y-92075000D02*
X198120000Y-93980000D01*
X220980000Y-93980000D02*
X220345000Y-93980000D01*
X220345000Y-93980000D02*
X219075000Y-95250000D01*
X209550000Y-95250000D02*
X209550000Y-93980000D01*
X220980000Y-93980000D02*
X220980000Y-92710000D01*
X225425000Y-102870000D02*
X223480000Y-102870000D01*
X225425000Y-92710000D02*
X225425000Y-102870000D01*
X224790000Y-92075000D02*
X225425000Y-92710000D01*
X221615000Y-92075000D02*
X224790000Y-92075000D01*
X220980000Y-92710000D02*
X221615000Y-92075000D01*
X170800000Y-112970000D02*
X172025000Y-112970000D01*
X180340000Y-114300000D02*
X180340000Y-113050000D01*
X173355000Y-114300000D02*
X180340000Y-114300000D01*
X172025000Y-112970000D02*
X173355000Y-114300000D01*
X199390000Y-110450000D02*
X196890000Y-110450000D01*
X191115000Y-113050000D02*
X180340000Y-113050000D01*
X191135000Y-113030000D02*
X191115000Y-113050000D01*
X196890000Y-110450000D02*
X194310000Y-113030000D01*
X199390000Y-110450000D02*
X204450000Y-110450000D01*
X204450000Y-110450000D02*
X204470000Y-110470000D01*
X204470000Y-110470000D02*
X204470000Y-114300000D01*
X204470000Y-118110000D02*
X200340000Y-118110000D01*
X204470000Y-114300000D02*
X204470000Y-118110000D01*
X212090000Y-106990000D02*
X208605000Y-106990000D01*
X207625000Y-107315000D02*
X204470000Y-110470000D01*
X208280000Y-107315000D02*
X207625000Y-107315000D01*
X208605000Y-106990000D02*
X208280000Y-107315000D01*
X223500000Y-109220000D02*
X223500000Y-111105000D01*
X216225000Y-111125000D02*
X212090000Y-106990000D01*
X223480000Y-111125000D02*
X216225000Y-111125000D01*
X223500000Y-111105000D02*
X223480000Y-111125000D01*
X223480000Y-102870000D02*
X223480000Y-109200000D01*
X223480000Y-109200000D02*
X223500000Y-109220000D01*
X212090000Y-110490000D02*
X210185000Y-110490000D01*
X180995000Y-115550000D02*
X180340000Y-115550000D01*
X181610000Y-114935000D02*
X180995000Y-115550000D01*
X181610000Y-114300000D02*
X181610000Y-114935000D01*
X210185000Y-110490000D02*
X207010000Y-113665000D01*
X170800000Y-111970000D02*
X173565000Y-111970000D01*
X175260000Y-113665000D02*
X177165000Y-113665000D01*
X173565000Y-111970000D02*
X175260000Y-113665000D01*
X170800000Y-109970000D02*
X177115002Y-109970000D01*
X175895000Y-113665000D02*
X175895000Y-112395000D01*
X177165000Y-113665000D02*
X175895000Y-113665000D01*
X177165000Y-110019998D02*
X177165000Y-113665000D01*
X177115002Y-109970000D02*
X177165000Y-110019998D01*
X179090000Y-115550000D02*
X180340000Y-115550000D01*
X179070000Y-115570000D02*
X179090000Y-115550000D01*
X220980000Y-102870000D02*
X220980000Y-109200000D01*
X220980000Y-109200000D02*
X221000000Y-109220000D01*
X194230000Y-104140000D02*
X194230000Y-102315000D01*
X194310000Y-102235000D02*
X220345000Y-102235000D01*
X194230000Y-102315000D02*
X194310000Y-102235000D01*
X220345000Y-102235000D02*
X220980000Y-102870000D01*
X170800000Y-110970000D02*
X175105000Y-110970000D01*
X220980000Y-100965000D02*
X220980000Y-102870000D01*
X175895000Y-100965000D02*
X220980000Y-100965000D01*
X175105000Y-110970000D02*
X175260000Y-111125000D01*
X177780000Y-116840000D02*
X182800000Y-116840000D01*
X170800000Y-106970000D02*
X175845002Y-106970000D01*
X176135002Y-106680000D02*
X176530000Y-106680000D01*
X175845002Y-106970000D02*
X176135002Y-106680000D01*
X170800000Y-110470000D02*
X175875000Y-110470000D01*
X177780000Y-114955000D02*
X177780000Y-116840000D01*
X177800000Y-114935000D02*
X177780000Y-114955000D01*
X175875000Y-110470000D02*
X176530000Y-111125000D01*
X176510000Y-116840000D02*
X176510000Y-118130000D01*
X176510000Y-116840000D02*
X182800000Y-116840000D01*
X176510000Y-118130000D02*
X168910000Y-125730000D01*
X168910000Y-125730000D02*
X167718740Y-125730000D01*
X171450000Y-110490000D02*
X170800000Y-110470000D01*
X175280000Y-116840000D02*
X173990000Y-116840000D01*
X181690000Y-118190000D02*
X181690000Y-124460000D01*
X181610000Y-118110000D02*
X181690000Y-118190000D01*
X170800000Y-111470000D02*
X174335000Y-111470000D01*
X174625000Y-106045000D02*
X172720000Y-106045000D01*
X174335000Y-111470000D02*
X174625000Y-111760000D01*
X170800000Y-106470000D02*
X172510000Y-106470000D01*
X172720000Y-102870000D02*
X178990000Y-102870000D01*
X172720000Y-106260000D02*
X172720000Y-106045000D01*
X172720000Y-106045000D02*
X172720000Y-102870000D01*
X172510000Y-106470000D02*
X172720000Y-106260000D01*
X170800000Y-108470000D02*
X182130000Y-108470000D01*
X189230000Y-109220000D02*
X189230000Y-105390000D01*
X182130000Y-108470000D02*
X182880000Y-109220000D01*
X186610000Y-124460000D02*
X186610000Y-123270000D01*
X192720000Y-118430000D02*
X192720000Y-116840000D01*
X192405000Y-118745000D02*
X192720000Y-118430000D01*
X191135000Y-118745000D02*
X192405000Y-118745000D01*
X186610000Y-123270000D02*
X191135000Y-118745000D01*
X189230000Y-102890000D02*
X191750000Y-102890000D01*
X192720000Y-103860000D02*
X192720000Y-116840000D01*
X191750000Y-102890000D02*
X192720000Y-103860000D01*
X170800000Y-107470000D02*
X181130000Y-107470000D01*
X187960000Y-102870000D02*
X189210000Y-102870000D01*
X183840000Y-106990000D02*
X187960000Y-102870000D01*
X181610000Y-106990000D02*
X183840000Y-106990000D01*
X181130000Y-107470000D02*
X181610000Y-106990000D01*
X189210000Y-102870000D02*
X189230000Y-102890000D01*
X170800000Y-107970000D02*
X184170000Y-107970000D01*
X185440000Y-109240000D02*
X185440000Y-110490000D01*
X184170000Y-107970000D02*
X185440000Y-109240000D01*
X194230000Y-124460000D02*
X194230000Y-121365000D01*
X197485000Y-118110000D02*
X198440000Y-118110000D01*
X194230000Y-121365000D02*
X197485000Y-118110000D01*
X185500000Y-116840000D02*
X190820000Y-116840000D01*
X186610000Y-96520000D02*
X182880000Y-96520000D01*
X182880000Y-96520000D02*
X181610000Y-95250000D01*
X175180000Y-95330000D02*
X175180000Y-96520000D01*
X175260000Y-95250000D02*
X175180000Y-95330000D01*
X220900000Y-96520000D02*
X213995000Y-96520000D01*
X209470000Y-97710000D02*
X209470000Y-96520000D01*
X209550000Y-97790000D02*
X209470000Y-97710000D01*
X213995000Y-96520000D02*
X213995000Y-97790000D01*
X198040000Y-96520000D02*
X193040000Y-96520000D01*
X186610000Y-97710000D02*
X186610000Y-96520000D01*
X186690000Y-97790000D02*
X186610000Y-97710000D01*
X192405000Y-97155000D02*
X192405000Y-97790000D01*
X193040000Y-96520000D02*
X192405000Y-97155000D01*
X218440000Y-96520000D02*
X218440000Y-98425000D01*
X220900000Y-96520000D02*
X218440000Y-96520000D01*
X178990000Y-109220000D02*
X178990000Y-109140000D01*
X181610000Y-97790000D02*
X182880000Y-96520000D01*
X177800000Y-97790000D02*
X181610000Y-97790000D01*
X168990000Y-96520000D02*
X175180000Y-96520000D01*
X196930000Y-104140000D02*
X200025000Y-104140000D01*
X198040000Y-98345000D02*
X198040000Y-96520000D01*
X198120000Y-98425000D02*
X198040000Y-98345000D01*
X198755000Y-98425000D02*
X198120000Y-98425000D01*
X200025000Y-104140000D02*
X203835000Y-104140000D01*
X170800000Y-108970000D02*
X178820000Y-108970000D01*
X178990000Y-109220000D02*
X178990000Y-110490000D01*
X178820000Y-108970000D02*
X178990000Y-109140000D01*
X165350000Y-103520000D02*
X165350000Y-97460000D01*
X165350000Y-97460000D02*
X166370000Y-96440000D01*
X166370000Y-96440000D02*
X166370000Y-93980000D01*
X177800000Y-93980000D02*
X177800000Y-96440000D01*
X177800000Y-96440000D02*
X177880000Y-96520000D01*
X165850000Y-103520000D02*
X165850000Y-98310000D01*
X176610000Y-97790000D02*
X177880000Y-96520000D01*
X166370000Y-97790000D02*
X176610000Y-97790000D01*
X165850000Y-98310000D02*
X166370000Y-97790000D01*
X189310000Y-96520000D02*
X189310000Y-94060000D01*
X189310000Y-94060000D02*
X189230000Y-93980000D01*
X166350000Y-103520000D02*
X166350000Y-99080000D01*
X189310000Y-98345000D02*
X189310000Y-94060000D01*
X189230000Y-98425000D02*
X189310000Y-98345000D01*
X167005000Y-98425000D02*
X189230000Y-98425000D01*
X166350000Y-99080000D02*
X167005000Y-98425000D01*
X189310000Y-94060000D02*
X189230000Y-93980000D01*
X200740000Y-96520000D02*
X200740000Y-94060000D01*
X200740000Y-94060000D02*
X200660000Y-93980000D01*
X166850000Y-103520000D02*
X166850000Y-99850000D01*
X200740000Y-98980000D02*
X200740000Y-94060000D01*
X200660000Y-99060000D02*
X200740000Y-98980000D01*
X167640000Y-99060000D02*
X200660000Y-99060000D01*
X166850000Y-99850000D02*
X167640000Y-99060000D01*
X200740000Y-94060000D02*
X200660000Y-93980000D01*
X200740000Y-94060000D02*
X200660000Y-93980000D01*
X212170000Y-96520000D02*
X212170000Y-94060000D01*
X212170000Y-94060000D02*
X212090000Y-93980000D01*
X167350000Y-103520000D02*
X167350000Y-100620000D01*
X212170000Y-99615000D02*
X212170000Y-94060000D01*
X212090000Y-99695000D02*
X212170000Y-99615000D01*
X168275000Y-99695000D02*
X212090000Y-99695000D01*
X167640000Y-100330000D02*
X168275000Y-99695000D01*
X167350000Y-100620000D02*
X167640000Y-100330000D01*
X212170000Y-94060000D02*
X212090000Y-93980000D01*
X223600000Y-96520000D02*
X223600000Y-94060000D01*
X223600000Y-94060000D02*
X223520000Y-93980000D01*
X167850000Y-103520000D02*
X167850000Y-101390000D01*
X223600000Y-100250000D02*
X223600000Y-94060000D01*
X223520000Y-100330000D02*
X223600000Y-100250000D01*
X168910000Y-100330000D02*
X223520000Y-100330000D01*
X167850000Y-101390000D02*
X168910000Y-100330000D01*
X223600000Y-94060000D02*
X223520000Y-93980000D01*
X172720000Y-125730000D02*
X177720000Y-125730000D01*
X177720000Y-125730000D02*
X178990000Y-124460000D01*
X189310000Y-124460000D02*
X189310000Y-126285000D01*
X218440000Y-128270000D02*
X220980000Y-125730000D01*
X191295000Y-128270000D02*
X218440000Y-128270000D01*
X189310000Y-126285000D02*
X191295000Y-128270000D01*
X196930000Y-124460000D02*
X201295000Y-124460000D01*
X213438740Y-123190000D02*
X215978740Y-125730000D01*
X202565000Y-123190000D02*
X213438740Y-123190000D01*
X201295000Y-124460000D02*
X202565000Y-123190000D01*
X170800000Y-112470000D02*
X172795000Y-112470000D01*
X181690000Y-104695000D02*
X181690000Y-102870000D01*
X181610000Y-104775000D02*
X181690000Y-104695000D01*
X173990000Y-104775000D02*
X181610000Y-104775000D01*
X172795000Y-112470000D02*
X173990000Y-113665000D01*
M02*
