M48
;DRILL file {KiCad 4.0.2-stable} date 2016年05月15日日曜日 13:16:15
;FORMAT={-:-/ absolute / metric / decimal}
FMAT,2
METRIC,TZ
T1C0.400
T2C0.800
T3C0.813
T4C1.199
%
G90
G05
M71
T1
X173.99Y-104.775
X173.99Y-113.665
X173.99Y-116.84
X174.625Y-106.045
X174.625Y-111.76
X175.26Y-95.25
X175.26Y-111.125
X175.895Y-100.965
X175.895Y-112.395
X176.53Y-106.68
X176.53Y-111.125
X177.8Y-97.79
X177.8Y-114.935
X178.99Y-109.14
X179.07Y-115.57
X181.61Y-95.25
X181.61Y-114.3
X181.61Y-118.11
X182.88Y-109.22
X183.515Y-112.395
X186.69Y-97.79
X189.23Y-109.22
X191.135Y-113.03
X192.405Y-97.79
X194.31Y-107.95
X194.31Y-113.03
X198.755Y-98.425
X203.835Y-104.14
X207.01Y-113.665
X209.55Y-95.25
X209.55Y-97.79
X213.995Y-97.79
X218.44Y-98.425
X219.075Y-95.25
T2
X199.39Y-107.95
X199.39Y-110.45
X212.09Y-106.99
X212.09Y-110.49
X220.98Y-102.87
X223.48Y-102.87
T3
X161.29Y-93.98
X163.83Y-93.98
X166.37Y-93.98
X172.72Y-93.98
X175.26Y-93.98
X177.8Y-93.98
X184.15Y-93.98
X186.69Y-93.98
X189.23Y-93.98
X195.58Y-93.98
X198.12Y-93.98
X200.66Y-93.98
X207.01Y-93.98
X209.55Y-93.98
X212.09Y-93.98
X218.44Y-93.98
X220.98Y-93.98
X223.52Y-93.98
T4
X162.717Y-125.73
X167.719Y-125.73
X172.72Y-125.73
X210.977Y-125.73
X215.979Y-125.73
X220.98Y-125.73
T0
M30
